<svg width="992" height="884" viewBox="0 0 992 884" fill="none" xmlns="http://www.w3.org/2000/svg">
<path d="M1034 924.215H1036.5V929.218H1034C922.267 928.932 756.946 928.497 640.33 928.126C560.208 927.872 503.033 927.639 501.868 927.501C500.119 927.299 498.677 926.706 497.554 925.911C496.112 924.904 495.19 923.558 494.755 922.275C494.098 920.314 493.028 915.067 491.48 907.446C487.399 887.413 479.916 850.749 468.627 816.757C466.878 811.478 465.924 808.574 465.002 805.765C461.208 794.19 457.689 783.474 454.371 774.803C454.042 775.174 453.64 775.556 453.173 775.927C446.877 780.962 423.198 788.562 400.409 794.349C388.166 797.455 376.072 800.009 366.872 801.355C367.433 804.631 367.677 807.037 367.423 808.044C367.052 809.506 365.992 810.81 364.518 811.912C362.653 813.312 360.014 814.478 357.512 815.209C354.873 815.972 352.244 816.269 350.633 815.866C349.7 815.633 348.948 815.177 348.418 814.467C347.665 813.46 347.05 812.05 346.393 810.513C345.503 808.457 344.485 806.093 343.605 805.574C342.249 804.758 303.9 812.114 273.097 820.88C255.407 825.915 240.546 831.384 237.43 835.984C233.518 841.74 230.922 874.821 229.024 898.945C228.303 908.135 227.678 916.053 227.106 920.802C226.915 922.349 226.47 923.547 225.897 924.416C224.933 925.879 223.597 926.526 222.304 926.526C217.555 926.526 -197.269 929.525 -198.467 929.536L-200.968 929.546L-201 924.533L-198.499 924.522C-197.322 924.512 205.557 921.597 221.795 921.501C221.933 921.226 222.039 920.802 222.113 920.208C222.675 915.566 223.3 907.69 224.011 898.553C225.95 873.878 228.611 840.054 233.285 833.175C237.175 827.43 253.064 821.357 271.719 816.046C303.507 807.005 344.347 800.179 346.181 801.271C348.471 802.638 349.817 805.786 351.004 808.531C351.428 809.528 351.831 810.46 352.159 811.043C353.018 811.128 354.491 810.874 356.124 810.397C358.106 809.824 360.162 808.934 361.519 807.906C362.102 807.471 362.494 807.09 362.558 806.825C362.685 806.305 362.452 804.546 361.964 801.981C356.378 802.585 352.467 802.532 351.163 801.61C350.909 801.43 350.675 801.207 350.474 800.953C347.294 796.978 342.408 779.298 339.578 768.306C293.682 777.231 246.874 787.714 231.907 792.282C233.836 812.919 234.207 826.762 232.257 828.543C230.264 830.366 228.197 830.494 226.173 829.349C224.498 828.395 223.014 826.413 221.827 823.805C220.757 821.473 219.866 818.569 219.262 815.474C217.312 805.574 218.213 793.247 225.071 789.494C225.505 789.261 226.194 788.975 227.116 788.646C224.191 762.529 218.933 725.515 212.945 688.491C203.395 629.409 191.777 570.624 184.368 555.816C177.065 541.21 162.872 528.735 148.107 515.74C130.936 500.635 113.001 484.852 103.43 463.78C95.0881 445.433 93.6254 426.491 96.5403 409.744C99.964 390.103 109.44 373.409 120.983 364.113C132.197 355.093 141.631 354.584 148.489 355.707C140.624 349.994 131.233 347.779 117.845 358.675C98.8404 374.161 95.4167 394.247 93.6678 404.529C92.8411 409.362 92.3217 412.468 90.0216 413.348C83.1849 415.966 71.0696 387.591 59.4419 360.382C53.5167 346.507 47.7187 332.95 43.1927 324.237C29.8479 298.565 29.8479 180.465 29.8479 167.321C29.8479 158.842 34.6389 156.457 41.2106 156.457C44.825 156.457 48.9165 157.273 52.9443 158.089C54.99 158.503 57.0145 158.905 58.8165 159.17C63.5015 159.87 68.2819 158.704 72.2779 156.573C73.0199 156.181 73.7301 155.757 74.3978 155.301C72.6595 155.217 70.6244 155.333 68.4939 155.46C61.7313 155.853 54.1527 156.298 48.9907 151.136C45.5564 147.702 43.1609 144.002 41.942 140.483C40.9456 137.6 40.7336 134.791 41.3908 132.3C42.0798 129.672 43.6909 127.446 46.309 125.877C48.3547 124.658 51.0046 123.853 54.2798 123.619C57.9367 123.354 61.1696 122.782 63.8407 121.892C66.5965 120.969 68.7483 119.729 70.1156 118.15C71.3451 116.73 71.9599 114.97 71.8009 112.85C71.7373 111.896 71.5253 110.889 71.1649 109.819C68.3455 101.35 62.4733 97.078 55.8592 95.3503C51.1742 94.1314 46.0652 94.142 41.3272 94.8521C36.5468 95.5623 32.1904 96.9509 29.0211 98.4666C28.8727 98.5408 28.7349 98.6044 28.5865 98.6786C30.2189 109.024 34.4269 121.393 36.8966 128.686C37.8187 131.389 38.5077 133.435 38.7939 134.569C39.6737 138.098 38.8999 142.116 37.045 145.804C35.1688 149.556 32.1586 153.044 28.7031 155.344C26.5938 156.754 24.8661 156.213 23.4669 154.114C19.3755 147.977 19.6723 113.995 19.7677 103.459C19.7677 102.982 19.7783 102.6 19.7783 101.01C19.7783 99.4099 21.0926 97.6398 23.3503 96.0075C22.6614 88.9482 23.2867 82.758 26.456 79.239C32.1586 72.9004 46.0546 73.4092 58.6469 73.8756C68.0805 74.2254 76.7085 74.5434 78.6695 72.2539C80.5986 69.9962 80.9484 67.1555 81.2558 64.548C81.9023 59.121 82.4641 54.4572 91.3041 53.3125C96.1269 52.6871 99.646 52.8779 102.116 53.588C103.812 54.0756 105.094 54.807 106.016 55.708C107.087 56.7467 107.659 57.9763 107.829 59.28C107.945 60.1916 107.861 61.1137 107.606 62.0041C107.384 62.7779 106.832 64.2512 106.091 66.2121C103.356 73.4728 97.8971 87.9094 98.6496 95.7425C99.381 103.417 100.844 107.455 102.412 108.897C102.614 109.087 102.752 109.162 102.826 109.151C103.038 109.109 103.335 108.865 103.663 108.451C105.285 106.406 106.313 102.07 105.73 96.7601C105.349 93.3576 106.716 89.7431 108.603 86.2347C108.666 84.0618 108.815 81.9631 109.037 80.0127C109.557 75.4973 110.574 71.7027 112.153 69.6676C114.083 67.1873 116.457 66.6467 119.319 68.8726C123.378 72.0313 120.167 77.0661 116.436 82.9382C115.482 84.4328 114.485 86.0015 113.595 87.5596C113.563 89.5841 113.595 91.6511 113.701 93.665C114.093 101.244 114.909 108.07 115.853 108.017C118.365 107.89 120.591 98.0108 122.923 87.655C123.378 85.6517 123.834 83.6378 124.385 81.3271C125.477 76.7587 126.823 72.5719 127.947 69.0952C128.615 67.0389 129.176 65.2688 129.569 64.0074C128.731 64.1664 127.915 64.336 127.131 64.4844C120.877 65.7245 116.096 66.6679 114.507 65.0886C113.213 63.7954 113.15 62.3539 114.019 60.8805C114.655 59.81 115.99 58.7712 117.686 57.9445C119.128 57.2449 120.93 56.6195 122.785 56.2273C126.791 55.3794 131.127 55.6126 133.522 58.1671C137.073 57.5417 140.74 56.9905 144.154 56.7361C146.04 54.7752 148.213 53.0263 150.704 51.5953C153.184 50.1856 155.58 50.3446 157.806 51.4469C159.247 52.1677 160.572 53.3125 161.759 54.6586C162.851 55.9093 163.826 57.3509 164.642 58.7818C166.815 62.5871 167.769 66.9223 167.261 67.9504C166.434 69.604 165.204 69.8796 163.572 69.0634C163 68.7772 162.321 68.2366 161.41 67.5053C159.004 65.5867 154.594 62.0571 150.1 61.6861C148.987 61.5907 147.779 61.5801 146.496 61.6225C144.811 63.6364 143.433 65.8411 142.32 68.0988C138.642 75.4973 137.773 83.0442 138.366 85.4291C139.151 88.609 140.115 90.2519 141.037 90.8349C141.207 90.9409 141.345 90.9727 141.461 90.9621C141.641 90.9303 141.843 90.8137 142.055 90.6335C142.85 89.9021 143.401 88.5348 143.412 86.9237C143.422 85.4185 143.602 83.8392 143.952 82.3023C144.599 79.4404 145.839 76.6209 147.662 74.4904C149.655 72.1479 152.315 70.6215 155.633 70.6427C156.407 70.6427 157.212 70.7381 158.028 70.9183C159.332 71.2151 258.014 60.7957 380.768 47.8537C583.77 26.4214 852.395 -1.92187 859.115 0.102651C864.33 1.67139 871.114 7.23616 877.209 14.4439C878.587 14.5393 880.166 15.0798 881.862 15.9808C884.088 17.1785 886.695 19.0759 889.324 21.4608C894.136 25.8172 899.086 31.8589 901.884 38.1657C908.594 53.2595 906.993 70.4625 906.644 74.2784L906.612 74.5858C906.569 75.1052 906.474 75.5821 906.347 76.0379C905.478 79.0906 902.754 81.7193 899.712 83.5C896.744 85.2383 893.32 86.2241 890.999 86.0121C890.575 85.9697 890.193 85.9061 889.865 85.8107C884.236 84.1996 878.173 79.4086 872.566 72.7838C866.853 66.0425 861.532 57.3403 857.599 48.2035C855.448 43.2111 853.953 37.9749 852.565 33.1203C850.106 24.4922 848.007 17.1467 843.672 15.9596C836.358 13.9669 683.926 32.7599 524.593 52.4009C395.522 68.3214 261.968 84.7826 195.869 90.5063C196.441 90.6759 197.003 90.8773 197.544 91.1105C202.112 93.0714 203.14 95.6153 201.805 98.721C200.48 101.816 196.028 104.89 190.749 108.536C183.796 113.338 175.263 119.231 172.327 126.078C170.462 130.424 168.978 135.321 167.6 139.879C167.239 141.077 166.879 142.253 166.519 143.398C166.9 143.684 167.282 144.002 167.674 144.352C173.62 149.726 188.025 161.534 200.289 170.968C209.373 177.953 217.089 183.549 218.827 183.963C219.177 184.047 219.516 184.09 219.845 184.1C222.516 178.451 225.77 172.78 229.798 167.321C249.386 140.833 281.884 135.756 302.765 137.399C304.324 136.265 306.433 135.332 309.136 134.706C318.495 132.576 335.55 134.198 350.962 144.193C361.741 151.189 371.769 162.265 377.863 179.002C381.838 189.909 385.007 203.932 386.396 216.419C387.689 228.046 387.424 238.497 384.827 244.2C382.082 250.242 375.5 256.676 367.847 262.601C355.901 271.833 341.189 279.963 334.924 283.1C332.285 284.415 329.201 289.566 325.332 296.011C316.736 310.352 304.588 330.597 280.877 335.271C263.261 338.748 249.079 331 233.603 322.541C226.724 318.789 219.591 314.878 211.789 311.836C200.84 307.554 191.703 307.236 184.782 306.992C176.45 306.706 170.896 306.504 168.215 300.462C166.126 295.777 172.062 282.888 180.34 270.635C188.121 259.124 198.01 247.846 205.08 244.433C209.351 242.377 218.054 246.097 229.332 250.92C237.97 254.609 248.209 258.986 258.597 261.869C270.946 265.293 283.686 267.678 294.742 269.236C310.747 271.483 322.926 272.034 325.077 271.42C327.696 270.678 330.197 254.058 331.363 234.374C332.465 215.857 331.978 194.891 328.84 181.44C328.279 179.034 327.441 176.797 326.371 174.741C321.749 165.859 312.665 160.198 302.034 157.358C291.159 154.453 278.715 154.506 267.691 157.082C262.763 158.227 258.131 159.88 254.06 162C244.489 166.982 238.691 173.819 234.101 179.225C230.222 183.793 227.106 187.471 223.226 188.722C218.509 199.343 215.754 209.847 213.485 218.517C210.136 231.279 207.74 240.416 201.084 241.624C195.901 242.568 181.814 225.746 166.72 207.716C153.407 191.817 139.278 174.942 131.37 169.367C123.696 163.951 117.983 158.439 114.242 152.874C110.627 147.5 108.836 142.073 108.878 136.625C108.889 135.332 109.005 134.049 109.217 132.767C97.2717 139.89 86.8205 146.557 85.9407 149.048C85.3472 150.733 84.3826 152.418 83.1107 154.019C84.3084 155.906 84.7112 158.672 84.0328 162.7C82.5489 171.593 90.0322 206.794 99.222 240.564C107.977 272.734 118.163 303.335 123.442 308.158C129.823 313.988 141.111 327.11 149.74 338.515C157.445 348.701 163 357.965 161.59 360.816C164.886 364.081 168.077 367.197 171.288 369.169C177.839 373.186 190.537 376.472 202.409 378.104C212.107 379.44 221.032 379.747 225.155 378.496C223.629 373.833 222.241 368.904 221.032 363.975C218.711 354.563 216.983 345.129 216.156 337.656C215.266 329.654 215.489 323.559 217.142 321.45C217.672 320.782 218.329 320.337 219.124 320.135C220.322 319.838 221.456 320.125 222.527 320.93C224.625 322.51 226.735 327.025 228.515 332.918C230.19 338.43 231.685 345.352 232.681 352.188C234.419 364.145 234.462 376.006 231.07 380.479C234.345 389.88 238.097 397.512 241.871 400.48C245.284 403.162 249.026 404.985 252.969 406.066C264.851 409.309 278.842 405.917 292.092 398.932C305.542 391.841 318.167 381.062 327.113 369.678C332.847 362.374 337.034 354.881 338.899 348.033C340.33 342.797 340.532 337.063 340.733 330.979C341.093 320.676 341.486 309.387 347.591 296.848C349.446 293.043 351.28 289.842 353.092 287.202C351.545 284.637 350.548 282.549 351.46 280.302C353.431 275.447 358.339 272.935 364.158 269.967C367.317 268.356 370.772 266.586 374.016 264.254C376.114 262.749 378.118 261.149 379.941 259.686C384.732 255.859 388.357 252.966 392.226 253.231C392.777 253.273 393.328 253.422 393.869 253.697C395.353 254.439 396.815 256.591 398.204 259.792C400.589 256.22 404.034 254.206 408.92 254.757C420.113 255.997 444.047 266.3 463.126 285.157C475.983 297.866 486.721 314.464 490.038 334.837C493.261 354.594 492.339 381.411 489.551 408.663C485.311 450.022 476.747 492.495 471.881 512.591C471.426 514.457 470.715 517.224 469.857 520.584C464.292 542.26 452.145 589.544 448.34 638.302C445.584 673.631 450.248 708.037 453.671 733.338C455.675 748.167 457.275 759.964 456.66 767.458C460.879 777.241 465.108 790.12 469.73 804.228C471.161 808.595 472.623 813.036 473.334 815.209C484.728 849.52 492.233 886.353 496.345 906.461C497.872 913.933 498.921 919.074 499.461 920.717C499.578 921.077 499.875 921.48 500.373 921.819C500.861 922.159 501.528 922.424 502.398 922.519C503.436 922.636 560.409 922.869 640.287 923.123C756.935 923.494 922.257 923.939 1034 924.215ZM451.71 768.253C448.319 760.42 445.118 755.215 441.98 754.007C435.875 751.665 400.419 756.975 360.003 764.437C359.346 764.554 358.689 764.681 358.031 764.808C359.971 771.867 362.473 781.46 364.423 789.717C365.006 792.208 365.547 794.603 366.002 796.787C374.577 795.356 386.714 792.664 399.2 789.494C421.459 783.845 444.376 776.584 450.067 772.037C450.354 771.804 450.566 771.602 450.682 771.433C451.17 770.723 451.509 769.652 451.71 768.253ZM443.761 749.333C446.474 750.382 449.061 753.159 451.583 757.282C451.053 751.05 449.983 743.132 448.743 734.006C445.287 708.461 440.581 673.737 443.369 637.931C447.206 588.802 459.438 541.179 465.045 519.343C465.85 516.185 466.518 513.588 467.048 511.404C471.881 491.456 480.382 449.259 484.601 408.143C487.357 381.274 488.279 354.902 485.131 335.632C482.004 316.447 471.828 300.759 459.65 288.718C441.418 270.71 418.862 260.894 408.411 259.739C404.564 259.315 402.115 262.081 400.599 266.459C402.242 272.013 403.705 278.967 404.86 286.566C407.362 302.943 408.729 322.584 407.722 337.36C407.192 345.15 405.973 351.68 403.896 355.845C401.924 359.799 399.041 364.77 394.738 369.54C390.392 374.363 384.594 378.973 376.846 382.132C363.13 387.718 348.545 395.413 336.589 401.731C321.601 409.649 310.418 415.542 307.726 412.023C307.631 411.896 307.535 411.758 307.45 411.588C306.2 409.256 309.645 401.54 316.704 392.403C323.265 383.902 332.942 373.578 344.506 364.738C349.552 360.88 354.979 357.287 360.703 354.223C371.472 348.468 379.591 340.953 385.262 333.512C392.544 323.962 395.713 314.761 395.162 309.79C395.141 309.62 395.077 309.08 395.003 308.402C394.271 302.042 392.512 286.8 393.89 274.398C394.229 271.377 394.748 268.526 395.512 265.971C394.271 261.763 392.999 258.986 391.802 258.255C389.873 258.255 386.947 260.587 383.121 263.64C381.319 265.081 379.337 266.66 376.994 268.346C373.454 270.89 369.818 272.745 366.49 274.451C361.582 276.963 357.438 279.073 356.166 282.221C356.134 282.305 356.24 282.581 356.463 282.984C357.184 282.189 357.904 281.479 358.615 280.853C360.819 278.924 363.024 277.769 365.207 277.334C367.529 276.857 369.755 277.186 371.874 278.214C373.645 279.073 375.33 280.44 376.92 282.263C380.831 286.736 379.549 299.508 375.69 311.263C374.27 315.599 372.51 319.838 370.55 323.495C368.525 327.269 366.278 330.438 363.925 332.484C361.211 334.858 358.328 335.854 355.403 334.89C349.478 332.95 349.35 328.339 351.248 322.531C351.979 320.305 353.039 317.878 354.141 315.365C355.657 311.899 357.258 308.253 358.021 304.946C359.219 299.752 357.788 295.47 355.996 292.036C354.746 294.05 353.474 296.392 352.17 299.074C346.51 310.691 346.139 321.397 345.8 331.159C345.577 337.55 345.365 343.56 343.786 349.379C341.729 356.916 337.235 365.024 331.109 372.815C321.77 384.708 308.563 395.975 294.487 403.405C280.199 410.942 264.946 414.546 251.718 410.931C247.118 409.68 242.782 407.56 238.829 404.465C234.483 401.052 230.328 392.933 226.767 383.075C221.287 384.623 211.768 384.475 201.794 383.107C189.339 381.39 175.878 377.86 168.734 373.483C164.886 371.119 161.357 367.621 157.7 363.996C157.329 363.625 156.958 363.254 156.576 362.894C155.643 362.714 154.594 362.417 153.428 362.078C147.63 360.424 137.296 357.467 124.12 368.066C113.468 376.642 104.691 392.212 101.49 410.634C98.7344 426.491 100.123 444.415 108.009 461.767C117.135 481.832 134.656 497.254 151.435 512.019C166.561 525.332 181.093 538.115 188.852 553.633C196.505 568.928 208.291 628.275 217.895 687.76C223.767 724.084 228.738 760.579 231.42 787.343C248.326 782.393 293.819 772.185 338.337 763.504C338.062 762.413 337.839 761.501 337.67 760.823L337.426 759.858C336.769 757.219 338.603 754.664 341.401 752.979C342.429 752.364 343.584 751.855 344.761 751.495C345.959 751.135 347.231 750.933 348.46 750.933C351.523 750.944 354.216 752.216 355.297 755.438C355.583 756.307 356.06 757.897 356.664 759.996C357.47 759.847 358.286 759.699 359.091 759.551C400.26 751.898 436.68 746.609 443.761 749.333ZM353.081 765.73C350.23 766.271 347.368 766.811 344.496 767.363C347.178 777.803 351.576 793.893 354.205 797.614C355.064 798.027 357.491 797.963 361.031 797.518C360.586 795.483 360.077 793.225 359.515 790.851C357.544 782.435 355 772.715 353.081 765.73ZM227.678 793.787C227.604 793.819 227.53 793.861 227.466 793.893C222.855 796.405 222.569 806.337 224.18 814.509C224.721 817.265 225.484 819.767 226.374 821.717C227.138 823.392 227.932 824.579 228.643 824.982C228.674 825.003 228.738 824.961 228.865 824.844C230.201 823.636 229.597 811.849 227.678 793.787ZM343.266 762.497C346.096 761.946 348.927 761.416 351.725 760.886C351.216 759.095 350.803 757.738 350.548 756.975C350.294 756.212 349.446 755.904 348.449 755.904C347.75 755.904 346.976 756.032 346.202 756.265C345.397 756.509 344.634 756.837 343.977 757.24C342.98 757.834 342.249 758.395 342.291 758.597C342.408 759.074 342.323 758.724 342.535 759.572C342.715 760.303 342.97 761.3 343.266 762.497ZM155.198 354.637C153.163 351.489 149.74 346.761 145.786 341.536C137.306 330.332 126.283 317.496 120.114 311.868C114.093 306.366 103.377 274.801 94.4204 241.879C85.0822 207.557 77.5247 171.476 79.1252 161.873C79.4008 160.209 79.3796 158.958 79.1252 158.015C77.7579 159.117 76.2421 160.114 74.6204 160.972C69.7552 163.569 63.883 164.979 58.0851 164.12C56.05 163.813 54.0149 163.41 51.9585 162.997C48.1851 162.244 44.3375 161.47 41.2106 161.47C37.5431 161.47 34.872 162.753 34.872 167.311C34.872 180.327 34.8721 297.336 47.6551 321.916C52.2129 330.692 58.0745 344.398 64.0633 358.41C74.7582 383.446 85.909 409.543 88.2515 408.652C88.633 408.504 88.209 406.808 88.739 403.702C90.594 392.795 94.2296 371.469 114.697 354.785C133.289 339.638 145.15 345.659 155.198 354.637ZM76.8887 150.51C77.6837 150.648 78.4363 150.818 79.1252 151.051C80.0898 149.853 80.8106 148.613 81.2452 147.384C82.7503 143.112 96.9643 134.187 111.56 125.57C112.365 123.874 113.362 122.188 114.549 120.514C118.291 115.214 123.919 110.01 131.445 104.932C134.137 103.12 137.614 102.113 140.528 101.975C142.012 101.911 143.412 102.07 144.546 102.463C146.093 103.003 147.238 103.968 147.747 105.399C148.044 106.225 148.086 107.126 147.842 108.112V108.123C147.227 110.571 136.66 116.73 124.173 124.001C121.343 125.644 118.418 127.35 115.492 129.068C114.454 131.601 113.934 134.134 113.913 136.657C113.881 141.066 115.386 145.55 118.428 150.076C121.82 155.111 127.109 160.188 134.285 165.254C142.733 171.222 157.074 188.351 170.599 204.494C184.729 221.368 197.915 237.119 200.236 236.695C203.744 236.059 205.79 228.216 208.673 217.256C210.846 208.967 213.453 199.046 217.746 188.849L217.693 188.838C215.213 188.245 206.818 182.288 197.247 174.921C185.259 165.7 171.151 154.157 164.833 148.497C163.222 152.832 161.399 156.255 158.802 157.877C155.643 159.849 153.428 159.16 152.093 157.029C151.149 155.524 151.043 153.118 151.647 150.68C152.188 148.518 153.312 146.196 154.901 144.437C156.767 142.381 159.152 141.045 161.908 141.363C162.205 140.409 162.501 139.413 162.809 138.416C164.208 133.774 165.724 128.792 167.727 124.107C171.235 115.935 180.425 109.575 187.919 104.402C192.551 101.201 196.452 98.509 197.204 96.7495C197.279 96.5693 196.844 96.2513 195.583 95.7107C190.569 93.559 183.457 94.9581 176.578 97.7352C175.359 98.2228 174.15 98.7634 172.963 99.3251C169.539 103.268 163.402 108.674 159.014 111.79C157.562 112.829 156.279 113.635 155.315 114.112C152.835 115.32 151.054 115.044 150.312 112.829C150.036 112.002 150.142 111.027 150.715 109.904C152.432 106.469 160.678 99.7915 170.239 95.0959C170.44 94.7991 170.568 94.5341 170.621 94.3328C170.674 94.1208 169.275 93.3576 167.409 92.4672C158.664 92.8064 153.789 92.5308 153.534 91.5239C152.898 88.9906 153.608 87.2204 155.198 86.0651C156.703 84.9733 158.961 84.772 161.42 85.1641C163.487 85.4927 165.798 86.2347 167.907 87.1781C169.391 87.8458 170.78 88.6408 171.956 89.51C218.011 85.1217 374.058 65.8835 523.999 47.3979C683.798 27.7251 836.687 8.87909 844.986 11.1474C852.066 13.0765 854.515 21.6622 857.398 31.7635C858.744 36.4697 860.186 41.5469 862.21 46.2425C865.952 54.9342 870.997 63.1912 876.392 69.5616C881.385 75.4549 886.6 79.6736 891.232 80.9985C891.306 81.0197 891.38 81.0303 891.444 81.0409C892.801 81.1681 895.048 80.4367 897.178 79.1966C899.235 77.9882 901.037 76.3665 901.513 74.6706C901.566 74.4692 901.609 74.289 901.619 74.1406L901.651 73.8332C901.98 70.2506 903.485 54.1074 897.305 40.222C894.804 34.5936 890.331 29.1455 885.964 25.1918C885.222 24.524 884.48 23.8881 883.759 23.3157C887.522 29.1243 890.543 35.3462 891.984 41.1124C894.581 51.5211 894.136 61.3787 892.928 66.8693C892.589 68.4274 892.165 69.6888 891.73 70.5685C890.882 72.2645 889.695 73.1442 888.243 73.0382C887.49 72.9852 886.833 72.6885 886.271 72.1267C885.222 71.0773 885.01 68.3638 884.703 64.336C884.289 58.8984 883.653 50.6308 881.607 42.8507C880.145 37.2647 877.749 32.0073 875.841 27.8099C873.69 23.0825 872.057 19.4892 872.842 17.0514C867.521 10.8612 861.86 6.1762 857.695 4.92545C851.897 3.17652 583.845 31.4562 381.276 52.8249C258.078 65.8199 159.035 76.2711 156.926 75.7941C156.449 75.6881 156.014 75.6351 155.612 75.6351C153.948 75.6245 152.559 76.4619 151.467 77.7338C150.206 79.2178 149.326 81.2635 148.839 83.394C148.563 84.6024 148.425 85.8107 148.415 86.9343C148.393 89.9551 147.174 92.711 145.425 94.3116C144.482 95.1807 143.38 95.7425 142.182 95.9227C140.931 96.1029 139.628 95.8591 138.377 95.0747C136.437 93.8558 134.614 91.2165 133.48 86.6269C132.717 83.553 133.586 74.3738 137.804 65.8729C138.419 64.6434 139.098 63.4244 139.85 62.2267C138.186 62.4493 136.501 62.7249 134.826 63.0111C134.519 64.9932 133.692 67.5583 132.706 70.6109C131.604 74.0346 130.268 78.1684 129.24 82.4612C128.795 84.3056 128.297 86.5209 127.798 88.7256C125.032 100.979 122.393 112.67 116.096 112.999C113.542 113.126 111.581 109.946 110.309 105.187C109.726 107.847 108.762 110.041 107.585 111.515C106.483 112.914 105.147 113.804 103.684 114.059C102.073 114.345 100.473 113.889 99.01 112.543C96.6357 110.37 94.5158 105.25 93.6572 96.1771C92.7986 87.178 98.5224 72.0207 101.395 64.4102C102.073 62.5977 102.593 61.2409 102.773 60.5943C102.847 60.3294 102.879 60.0856 102.858 59.8948C102.826 59.6828 102.72 59.4602 102.518 59.2694C102.169 58.9302 101.596 58.6228 100.738 58.379C98.8616 57.8385 96.0103 57.7113 91.9401 58.2412C86.9795 58.8878 86.6297 61.7603 86.2269 65.0992C85.8242 68.4168 85.3896 72.0525 82.4641 75.4761C78.9344 79.5994 69.151 79.239 58.4561 78.8468C46.9767 78.4228 34.3103 77.9564 30.1658 82.5672C28.2155 84.7401 27.6644 88.662 27.9611 93.4212C31.4166 91.9055 35.8366 90.5699 40.5746 89.8703C45.8956 89.086 51.683 89.086 57.0888 90.4957C65.2292 92.6156 72.4263 97.8518 75.8924 108.239C76.3906 109.745 76.6873 111.165 76.7827 112.49C77.0371 116.009 75.9877 118.987 73.8784 121.415C71.8963 123.694 69.0027 125.421 65.3882 126.63C62.2825 127.668 58.6469 128.315 54.6084 128.612C52.1387 128.792 50.2414 129.333 48.8529 130.159C47.4325 131.007 46.5634 132.184 46.203 133.551C45.8108 135.056 45.9804 136.869 46.6482 138.83C47.6233 141.639 49.6055 144.67 52.4991 147.564C56.0818 151.146 62.4627 150.775 68.1759 150.436C71.3663 150.256 74.3236 150.086 76.8887 150.51ZM24.7813 104.89C24.6965 115.723 24.5693 143.282 27.1556 150.277C29.3921 148.486 31.3212 146.101 32.5932 143.547C33.9287 140.875 34.5223 138.077 33.9499 135.766C33.7167 134.812 33.0489 132.862 32.1692 130.276C30.0492 124.043 26.7634 114.355 24.7813 104.89ZM114.772 76.1545C115.874 74.3208 116.52 73.0382 116.245 72.8156C116.171 72.752 116.128 72.7309 116.128 72.7309C115.588 73.4198 115.132 74.6176 114.772 76.1545ZM151.743 56.8315C154.605 57.3085 157.244 58.5486 159.48 59.9266C159.014 59.227 158.516 58.5486 157.986 57.9445C157.223 57.0647 156.396 56.3439 155.569 55.9305C154.795 55.549 153.99 55.4748 153.174 55.9411C152.686 56.2167 152.209 56.5135 151.743 56.8315ZM887.119 42.2995C886.377 39.3104 885.148 36.173 883.59 33.0355C884.65 35.696 885.667 38.5579 886.451 41.5575C887.639 46.0836 888.37 50.6944 888.868 54.86C888.741 51.0335 888.222 46.7407 887.119 42.2995ZM177.934 91.9055C176.779 91.9796 175.666 92.0539 174.595 92.1175C174.786 92.393 174.956 92.6686 175.094 92.9442C176.037 92.5732 176.98 92.2234 177.934 91.9055ZM158.399 90.3261C158.442 90.4851 159.608 90.4957 161.834 90.3685C161.42 90.2731 161.017 90.1883 160.625 90.1247C159.406 89.9339 158.463 89.9021 158.124 90.1459C158.018 90.2307 158.346 90.1035 158.399 90.3261ZM156.237 153.563C157.679 152.588 158.929 150.076 160.148 146.737C159.565 146.938 159.046 147.32 158.611 147.808C157.615 148.91 156.884 150.457 156.523 151.91C156.354 152.546 156.258 153.118 156.237 153.563ZM156.354 154.39C156.481 154.591 156.364 154.379 156.258 154.125C156.279 154.231 156.311 154.316 156.354 154.39ZM229.141 177.37C229.522 176.925 229.915 176.458 230.317 175.981C235.183 170.236 241.352 162.965 251.782 157.538C256.223 155.227 261.258 153.436 266.589 152.185C278.376 149.429 291.699 149.387 303.37 152.503C315.283 155.683 325.533 162.159 330.865 172.42C332.126 174.836 333.101 177.455 333.759 180.295C337.013 194.223 337.521 215.73 336.398 234.66C335.115 256.294 331.246 274.875 326.477 276.232C323.89 276.974 310.757 276.529 294.084 274.186C282.849 272.607 269.886 270.169 257.293 266.682C246.556 263.703 236.168 259.262 227.403 255.52C217.301 251.206 209.51 247.878 207.295 248.938C201.052 251.938 191.905 262.527 184.538 273.434C177.086 284.447 171.479 295.406 172.825 298.438C174.235 301.607 178.528 301.766 184.983 301.989C192.286 302.243 201.942 302.582 213.655 307.161C221.689 310.299 229.003 314.295 236.041 318.143C250.679 326.145 264.088 333.47 279.955 330.343C301.483 326.092 312.952 306.981 321.071 293.435C325.353 286.301 328.777 280.588 332.72 278.617C338.825 275.564 353.166 267.646 364.815 258.637C371.896 253.167 377.916 247.348 380.291 242.144C382.495 237.3 382.644 227.792 381.446 216.98C380.1 204.854 377.026 191.266 373.189 180.719C367.518 165.148 358.233 154.867 348.269 148.401C335.868 140.356 322.47 138.183 313.694 139.052C315.612 139.519 317.297 140.038 318.686 140.6C323.35 142.465 325.395 145.094 323.996 147.892C323.318 149.249 321.675 150.383 318.951 151.104C311.499 153.097 305.627 151.772 302.405 149.26C301.08 148.232 300.158 146.981 299.681 145.635C299.289 144.522 299.193 143.366 299.427 142.211C279.754 141.352 251.241 146.769 233.847 170.3C232.14 172.621 230.572 174.985 229.141 177.37ZM304.588 142.603C304.525 142.709 304.472 142.826 304.429 142.932C304.292 143.282 304.292 143.642 304.408 143.971C304.567 144.426 304.938 144.893 305.489 145.327C307.641 147.002 311.892 147.808 317.658 146.26C318.877 145.931 319.46 145.741 319.502 145.656C319.682 145.295 318.326 145.857 316.82 145.253C314.012 144.14 309.772 143.154 304.588 142.603ZM134.243 109.098C129.06 112.596 124.862 116.125 121.651 119.676L121.661 119.666C132.112 113.582 141.111 108.345 142.723 107.148C142.214 107.01 141.525 106.957 140.74 106.989C138.663 107.073 136.172 107.805 134.243 109.098ZM228.738 373.069C229.416 368.3 228.908 360.7 227.773 352.898C226.82 346.337 225.378 339.691 223.767 334.37C222.707 330.851 221.626 328.021 220.672 326.357C220.46 328.53 220.661 332.325 221.191 337.105C221.997 344.387 223.682 353.587 225.95 362.777C226.798 366.254 227.742 369.72 228.738 373.069ZM361.922 284.595C361.031 285.369 360.13 286.323 359.197 287.457C361.879 291.919 364.783 297.919 362.907 306.038C362.038 309.79 360.342 313.659 358.742 317.337C357.703 319.711 356.696 322.011 356.028 324.046C355.032 327.078 354.862 329.399 356.961 330.088C358.01 330.427 359.282 329.866 360.639 328.678C362.515 327.036 364.391 324.354 366.14 321.1C367.942 317.729 369.585 313.765 370.931 309.673C374.312 299.35 375.849 288.591 373.157 285.517C372.023 284.213 370.857 283.259 369.68 282.687C368.546 282.136 367.38 281.956 366.193 282.199C364.868 282.475 363.448 283.249 361.922 284.595ZM399.91 287.308C399.476 284.457 399.009 281.712 398.532 279.126C397.939 290.075 399.349 302.339 399.985 307.819C400.027 308.211 400.069 308.603 400.144 309.228C400.811 315.249 397.335 325.923 389.247 336.543C383.205 344.472 374.535 352.485 363.056 358.622C357.629 361.527 352.424 364.971 347.549 368.702C336.355 377.267 327.017 387.23 320.668 395.445C315.294 402.409 312.019 407.55 311.839 408.938C313.026 408.493 322.194 403.649 334.257 397.289C346.33 390.919 361.063 383.139 374.97 377.479C381.923 374.649 387.117 370.504 391.017 366.18C394.971 361.802 397.621 357.234 399.433 353.598C401.193 350.079 402.242 344.196 402.73 337.02C403.716 322.626 402.369 303.399 399.91 287.308Z" fill="url(#paint0_linear_103_330)"/>
<defs>
<linearGradient id="paint0_linear_103_330" x1="417.749" y1="0" x2="417.749" y2="929.546" gradientUnits="userSpaceOnUse">
<stop offset="0.503125" stop-color="#19802E" stop-opacity="0.5"/>
<stop offset="1" stop-color="white"/>
</linearGradient>
</defs>
</svg>
